<svg width="45" height="45" viewBox="0 0 45 45" fill="none" xmlns="http://www.w3.org/2000/svg">
<path d="M30.8422 0.449637L9.82981 21.4634C9.52927 21.7636 9.37875 22.109 9.37875 22.4998C9.37875 22.8905 9.52927 23.2365 9.82981 23.5369L30.8422 44.5489C31.1432 44.85 31.4886 45 31.8795 45C32.2702 45 32.6161 44.8495 32.9165 44.5489L35.1703 42.2949C35.4709 41.9944 35.6211 41.6485 35.6211 41.2578C35.6211 40.867 35.4709 40.5211 35.1703 40.2206L17.4498 22.4998L35.1714 4.7783C35.472 4.4779 35.6212 4.13187 35.6212 3.74177C35.6212 3.35041 35.471 3.00454 35.1714 2.70415L32.9166 0.449797C32.6162 0.149406 32.2702 0.000155735 31.8796 0.000155735C31.4886 -2.19903e-06 31.1427 0.149247 30.8422 0.449637Z" fill="white"/>
</svg>
