<svg width="50" height="45" viewBox="0 0 50 45" fill="none" xmlns="http://www.w3.org/2000/svg">
<path d="M15.7309 44.5504L39.078 23.5366C39.4119 23.2364 39.5792 22.891 39.5792 22.5002C39.5792 22.1095 39.4119 21.7635 39.078 21.4631L15.7309 0.45106C15.3965 0.150037 15.0127 0 14.5784 0C14.1442 0 13.7599 0.150511 13.4262 0.45106L10.9218 2.7051C10.5879 3.00564 10.421 3.35152 10.421 3.74225C10.421 4.13298 10.5879 4.47885 10.9218 4.7794L30.6113 22.5002L10.9206 40.2217C10.5867 40.5221 10.4208 40.8681 10.4208 41.2582C10.4208 41.6496 10.5877 41.9955 10.9206 42.2959L13.426 44.5502C13.7597 44.8506 14.1442 44.9998 14.5782 44.9998C15.0127 45 15.397 44.8508 15.7309 44.5504Z" fill="white"/>
</svg>
